#!OML:ASF H:\Punching\Project 1\Capture day 1\Session 1\female.ASF
:FULLY-SPECIFIED
:DEGREES
1870
root -0.168346 15.6967 3.64222 7.0378 -9.73503 4.55151
lowerback -3.39268 -2.97886 -2.98169
upperback -6.83588 -3.97948 0.766514
thorax -4.92685 -1.83112 2.48912
lowerneck -9.16118 -6.9506 -2.2897
upperneck 26.1723 -9.08897 -1.98316
head 9.80088 -4.72489 -1.31796
rclavicle 1.70955e-014 -1.51076e-014
rhumerus -39.8914 -7.83825 -71.7263
rradius 24.7075
rwrist 11.6071
rhand -8.4237 -8.33453
rfingers 7.12502
rthumb 17.5011 -37.5668
lclavicle 1.70955e-014 -1.51076e-014
lhumerus -43.3858 4.40386 82.7552
lradius 53.3229
lwrist -5.31856
lhand -8.49223 13.8982
lfingers 7.12502
lthumb 17.4352 43.1363
rfemur -16.2058 10.5813 10.474
rtibia 33.2371
rfoot -20.0268 -20.3141
rtoes -3.98153
lfemur -4.00279 -12.6525 -22.1684
ltibia 13.8061
lfoot -14.7977 24.2834
ltoes 0.585328
1871
root -0.142057 15.6926 3.64346 6.95331 -10.077 4.55501
lowerback -3.42039 -2.94705 -3.0321
upperback -6.85691 -3.9377 0.748778
thorax -4.93435 -1.80818 2.49795
lowerneck -9.1563 -6.96491 -2.28211
upperneck 26.258 -9.11022 -2.0067
head 9.82912 -4.73753 -1.33242
rclavicle -5.79457e-014 -6.36111e-015
rhumerus -39.7689 -7.26162 -72.4015
rradius 25.1674
rwrist 11.5652
rhand -7.78385 -8.59913
rfingers 7.12502
rthumb 18.1168 -37.7754
lclavicle -5.79457e-014 -6.36111e-015
lhumerus -43.5156 4.26869 82.8251
lradius 53.144
lwrist -5.36295
lhand -8.36644 13.8481
lfingers 7.12502
lthumb 17.5562 43.0754
rfemur -16.2616 10.5893 10.3232
rtibia 33.267
rfoot -20 -19.9971
rtoes -4.15246
lfemur -3.84696 -12.5762 -22.3477
ltibia 13.7642
lfoot -14.9084 24.5363
ltoes 0.801377
1872
root -0.116507 15.6887 3.64425 6.87008 -10.4044 4.55185
lowerback -3.44024 -2.92261 -3.07814
upperback -6.87682 -3.90582 0.736013
thorax -4.94444 -1.79019 2.50993
lowerneck -9.15784 -6.97436 -2.27526
upperneck 26.3399 -9.12264 -2.03569
head 9.85701 -4.74671 -1.34783
rclavicle -3.07122e-014 -8.74653e-015
rhumerus -39.6523 -6.66537 -73.0747
rradius 25.6443
rwrist 11.3952
rhand -7.32159 -8.71992
rfingers 7.12502
rthumb 18.5615 -37.8544
lclavicle -3.07122e-014 -8.74653e-015
lhumerus -43.6525 4.16698 82.8793
lradius 52.9051
lwrist -5.40522
lhand -8.23767 13.8086
lfingers 7.12502
lthumb 17.6801 43.0248
rfemur -16.3113 10.6065 10.1851
rtibia 33.2909
rfoot -19.9797 -19.6939
rtoes -4.30126
lfemur -3.70019 -12.5021 -22.5124
ltibia 13.73
lfoot -15.0174 24.7742
ltoes 1.01338
1873
root -0.0916486 15.685 3.64461 6.78833 -10.7186 4.54152
lowerback -3.45472 -2.90522 -3.11892
upperback -6.89383 -3.8833 0.727657
thorax -4.95394 -1.77705 2.52375
lowerneck -9.1639 -6.97824 -2.26555
upperneck 26.4125 -9.12593 -2.0694
head 9.88202 -4.7519 -1.3642
rclavicle 1.93815e-014 7.95139e-015
rhumerus -39.5386 -6.05271 -73.7472
rradius 26.1224
rwrist 11.0583
rhand -7.10294 -8.66469
rfingers 7.12502
rthumb 18.7718 -37.7789
lclavicle 1.93815e-014 7.95139e-015
lhumerus -43.7981 4.10396 82.9142
lradius 52.6107
lwrist -5.44439
lhand -8.09759 13.787
lfingers 7.12502
lthumb 17.8149 42.991
rfemur -16.3559 10.634 10.0606
rtibia 33.309
rfoot -19.9563 -19.4094
rtoes -4.44363
lfemur -3.56206 -12.4226 -22.662
ltibia 13.703
lfoot -15.1213 24.9894
ltoes 1.2158
1874
root -0.0675155 15.6814 3.64431 6.71091 -11.0239 4.52246
lowerback -3.46486 -2.89153 -3.15207
upperback -6.90906 -3.86572 0.722426
thorax -4.96396 -1.76666 2.53677
lowerneck -9.17052 -6.97865 -2.25604
upperneck 26.4749 -9.12374 -2.10334
head 9.90343 -4.75461 -1.37969
rclavicle -2.5842e-014 -8.74653e-015
rhumerus -39.432 -5.44433 -74.4038
rradius 26.6397
rwrist 10.6788
rhand -6.94076 -8.65661
rfingers 7.12502
rthumb 18.9278 -37.7557
lclavicle -2.5842e-014 -8.74653e-015
lhumerus -43.9474 4.07827 82.9278
lradius 52.2527
lwrist -5.48376
lhand -7.94764 13.7767
lfingers 7.12502
lthumb 17.9592 42.9675
rfemur -16.4033 10.675 9.95048
rtibia 33.3249
rfoot -19.9292 -19.1445
rtoes -4.57926
lfemur -3.4331 -12.3353 -22.794
ltibia 13.6771
lfoot -15.2168 25.1835
ltoes 1.41281
1875
root -0.0440434 15.6779 3.64353 6.63279 -11.3253 4.50095
lowerback -3.46302 -2.88097 -3.18454
upperback -6.92669 -3.85272 0.720185
thorax -4.98288 -1.75827 2.55328
lowerneck -9.17167 -6.97525 -2.25177
upperneck 26.5303 -9.11517 -2.13676
head 9.92165 -4.7549 -1.39299
rclavicle -1.86858e-014 -7.95139e-015
rhumerus -39.3387 -4.84333 -75.0372
rradius 27.1899
rwrist 10.2537
rhand -6.82391 -8.68481
rfingers 7.12502
rthumb 19.0402 -37.7729
lclavicle -1.86858e-014 -7.95139e-015
lhumerus -44.1085 4.0919 82.9201
lradius 51.8314
lwrist -5.51865
lhand -7.78984 13.7817
lfingers 7.12502
lthumb 18.111 42.9585
rfemur -16.4523 10.7265 9.84739
rtibia 33.3409
rfoot -19.8958 -18.8951
rtoes -4.71346
lfemur -3.30751 -12.2368 -22.9176
ltibia 13.6518
lfoot -15.304 25.3601
ltoes 1.59814
1876
root -0.0212285 15.6743 3.64236 6.54874 -11.6221 4.48797
lowerback -3.45689 -2.87317 -3.22466
upperback -6.93811 -3.84353 0.715219
thorax -4.99713 -1.75162 2.57122
lowerneck -9.17957 -6.96996 -2.24744
upperneck 26.5797 -9.10346 -2.16991
head 9.93902 -4.75363 -1.40597
rclavicle 1.13307e-014 4.77083e-015
rhumerus -39.2454 -4.26506 -75.6459
rradius 27.7627
rwrist 9.78132
rhand -6.74862 -8.7425
rfingers 7.12502
rthumb 19.1126 -37.8234
lclavicle 1.13307e-014 4.77083e-015
lhumerus -44.2662 4.14687 82.8876
lradius 51.3429
lwrist -5.55608
lhand -7.61711 13.8043
lfingers 7.12502
lthumb 18.2772 42.9656
rfemur -16.4997 10.779 9.73997
rtibia 33.361
rfoot -19.8591 -18.6538
rtoes -4.85804
lfemur -3.17775 -12.1276 -23.0463
ltibia 13.6221
lfoot -15.3794 25.5219
ltoes 1.76217
1877
root 0.000944898 15.6705 3.6408 6.46048 -11.9161 4.4793
lowerback -3.44451 -2.8691 -3.27016
upperback -6.94553 -3.83946 0.709735
thorax -5.01009 -1.74732 2.59182
lowerneck -9.19315 -6.96071 -2.23933
upperneck 26.6244 -9.08563 -2.20614
head 9.95537 -4.74948 -1.42003
rclavicle -7.25564e-015 1.27222e-014
rhumerus -39.1528 -3.70267 -76.2306
rradius 28.3456
rwrist 9.24626
rhand -6.73184 -8.78018
rfingers 7.12502
rthumb 19.1287 -37.8595
lclavicle -7.25564e-015 1.27222e-014
lhumerus -44.4197 4.24654 82.8274
lradius 50.7808
lwrist -5.60258
lhand -7.43873 13.8382
lfingers 7.12502
lthumb 18.4488 42.9834
rfemur -16.5484 10.8342 9.63225
rtibia 33.3866
rfoot -19.8218 -18.4203
rtoes -5.001
lfemur -3.04402 -12.0093 -23.1758
ltibia 13.5863
lfoot -15.4455 25.6742
ltoes 1.9108
1878
root 0.022439 15.6668 3.63893 6.36764 -12.212 4.47965
lowerback -3.43564 -2.86001 -3.3174
upperback -6.94376 -3.82875 0.693939
thorax -5.01236 -1.74021 2.60216
lowerneck -9.21732 -6.95547 -2.22605
upperneck 26.6664 -9.07452 -2.24011
head 9.97266 -4.74754 -1.43528
rclavicle 2.08724e-015 7.95139e-016
rhumerus -39.0568 -3.18569 -76.788
rradius 28.9239
rwrist 8.63896
rhand -6.78722 -8.77916
rfingers 7.12502
rthumb 19.0755 -37.8637
lclavicle 2.08724e-015 7.95139e-016
lhumerus -44.5578 4.36979 82.7411
lradius 50.1425
lwrist -5.66601
lhand -7.26106 13.8736
lfingers 7.12502
lthumb 18.6197 43.0025
rfemur -16.599 10.891 9.51846
rtibia 33.418
rfoot -19.7872 -18.1865
rtoes -5.13983
lfemur -2.90705 -11.8827 -23.3117
ltibia 13.5453
lfoot -15.5034 25.822
ltoes 2.04005
